<svg width="90" height="90" viewBox="0 0 90 90" fill="none" xmlns="http://www.w3.org/2000/svg">
<path d="M59.85 45.0029L87.6928 17.1602C90.7691 14.0838 90.7691 9.09633 87.6928 6.0248L83.981 2.31302C80.9037 -0.764276 75.9162 -0.764276 72.8446 2.31302L45.0029 30.1548L17.1602 2.30725C14.0838 -0.769083 9.09633 -0.769083 6.0248 2.30725L2.30725 6.01903C-0.769083 9.09633 -0.769083 14.0838 2.30725 17.1554L30.1548 45.0029L2.31302 72.8446C-0.764276 75.9219 -0.764276 80.9094 2.31302 83.981L6.0248 87.6928C9.10113 90.7691 14.0886 90.7691 17.1602 87.6928L45.0029 59.85L72.8446 87.6928C75.9219 90.7691 80.9094 90.7691 83.981 87.6928L87.6928 83.981C90.7691 80.9037 90.7691 75.9162 87.6928 72.8446L59.85 45.0029Z" fill="white"/>
</svg>
