<svg width="90" height="90" viewBox="0 0 90 90" fill="none" xmlns="http://www.w3.org/2000/svg">
<path d="M45 0C20.1471 0 0 20.1471 0 45C0 69.8529 20.1471 90 45 90C69.8529 90 90 69.8529 90 45C90 20.1471 69.8529 0 45 0ZM70.6797 70.528C63.8255 77.3822 54.7072 81.1556 45.0002 81.1556C35.2933 81.1556 26.1733 77.3808 19.3205 70.528C12.4972 63.7021 8.73775 54.6365 8.73775 45C8.73775 35.3623 12.4972 26.2953 19.3205 19.472C26.1733 12.6178 35.2931 8.84436 45 8.84436C54.7046 8.84436 63.8255 12.6192 70.6783 19.472C77.503 26.2953 81.2596 35.3621 81.2596 45C81.2611 54.6365 77.503 63.7033 70.6797 70.528Z" fill="white"/>
</svg>
